<svg width="85" height="38" viewBox="0 0 85 38" fill="none" xmlns="http://www.w3.org/2000/svg">
<path d="M0 0H3.9146V25.4548H18.5501V28.8972H0V0ZM30.3136 26.6154C32.661 26.6154 34.2675 25.7302 35.1331 23.9597C36.0117 22.1762 36.4511 20.1959 36.4511 18.019C36.4511 16.0518 36.1363 14.4519 35.5068 13.2192C34.5101 11.2783 32.7922 10.3078 30.3529 10.3078C28.1891 10.3078 26.6154 11.134 25.6318 12.7864C24.6482 14.4388 24.1564 16.4322 24.1564 18.7665C24.1564 21.009 24.6482 22.8778 25.6318 24.3728C26.6154 25.8679 28.176 26.6154 30.3136 26.6154ZM30.4513 7.21939C33.1659 7.21939 35.4609 8.12428 37.3363 9.93404C39.2116 11.7438 40.1493 14.406 40.1493 17.9206C40.1493 21.3172 39.3231 24.1237 37.6707 26.34C36.0183 28.5563 33.4544 29.6644 29.9792 29.6644C27.0809 29.6644 24.7794 28.6874 23.0745 26.7334C21.3697 24.7663 20.5172 22.1303 20.5172 18.8255C20.5172 15.2847 21.4156 12.4651 23.2122 10.3668C25.0089 8.26853 27.4219 7.21939 30.4513 7.21939ZM51.8144 7.45545C53.4668 7.45545 54.9094 7.86199 56.1421 8.67508C56.8109 9.13407 57.4929 9.8029 58.1879 10.6816V8.02592H61.4534V27.1858C61.4534 29.8611 61.0599 31.9725 60.2731 33.52C58.8043 36.3789 56.0306 37.8084 51.9521 37.8084C49.6833 37.8084 47.7752 37.2969 46.2277 36.274C44.6802 35.2642 43.8147 33.6774 43.6311 31.5135H47.231C47.4015 32.4578 47.7424 33.1856 48.2539 33.6971C49.0538 34.4839 50.3128 34.8773 52.0308 34.8773C54.7454 34.8773 56.5224 33.92 57.3617 32.0053C57.8601 30.8775 58.0896 28.8645 58.0502 25.9662C57.3421 27.0416 56.4896 27.8415 55.4929 28.3661C54.4963 28.8907 53.1783 29.153 51.539 29.153C49.2571 29.153 47.2572 28.3464 45.5392 26.7334C43.8344 25.1072 42.9819 22.4254 42.9819 18.6878C42.9819 15.1601 43.8409 12.4061 45.5589 10.4258C47.29 8.44558 49.3751 7.45545 51.8144 7.45545ZM58.1879 18.2747C58.1879 15.665 57.6502 13.7306 56.5749 12.4717C55.4995 11.2127 54.1291 10.5832 52.4636 10.5832C49.9718 10.5832 48.267 11.7504 47.349 14.0847C46.8638 15.3306 46.6212 16.9633 46.6212 18.9829C46.6212 21.3566 47.0998 23.1663 48.0572 24.4122C49.0276 25.6449 50.3259 26.2613 51.9521 26.2613C54.4963 26.2613 56.2864 25.1138 57.3224 22.8188C57.8994 21.5205 58.1879 20.0058 58.1879 18.2747ZM75.1643 26.6154C77.5118 26.6154 79.1183 25.7302 79.9838 23.9597C80.8625 22.1762 81.3018 20.1959 81.3018 18.019C81.3018 16.0518 80.987 14.4519 80.3576 13.2192C79.3609 11.2783 77.6429 10.3078 75.2037 10.3078C73.0398 10.3078 71.4661 11.134 70.4825 12.7864C69.499 14.4388 69.0072 16.4322 69.0072 18.7665C69.0072 21.009 69.499 22.8778 70.4825 24.3728C71.4661 25.8679 73.0267 26.6154 75.1643 26.6154ZM75.302 7.21939C78.0167 7.21939 80.3117 8.12428 82.187 9.93404C84.0623 11.7438 85 14.406 85 17.9206C85 21.3172 84.1738 24.1237 82.5214 26.34C80.869 28.5563 78.3052 29.6644 74.8299 29.6644C71.9317 29.6644 69.6301 28.6874 67.9252 26.7334C66.2204 24.7663 65.368 22.1303 65.368 18.8255C65.368 15.2847 66.2663 12.4651 68.0629 10.3668C69.8596 8.26853 72.2726 7.21939 75.302 7.21939Z" fill="black"/>
</svg>
