<svg width="40" height="40" viewBox="0 0 40 40" fill="none" xmlns="http://www.w3.org/2000/svg">
<path d="M38.9455 29.3047L29.9391 25.7952C28.125 25.0938 26.0778 25.5028 24.7344 26.9056L23.6811 27.9589C23.2128 28.4273 22.4519 28.5438 21.867 28.192C19.2349 26.6703 14.3797 23.3368 11.3387 17.7801C10.9869 17.1358 11.1057 16.3178 11.6906 15.8495L12.9198 14.8556C14.6745 13.4528 15.2594 11.0537 14.3227 9.06599L10.5802 0.877354C10.3472 0.292451 9.76229 0 9.17739 0C7.48211 0.0594027 1.92577 0.701415 0.344191 7.13523C-0.124188 9.00645 -0.124188 11.0536 0.403593 13.1603C1.86585 19.1257 8.41617 38.7796 30.9349 39.5973H31.2868C33.567 39.5973 35.7901 38.72 37.4283 37.1412C39.1235 35.503 40.0009 33.3393 40.0009 30.9401V30.7641C39.9392 30.065 39.5304 29.5377 38.9455 29.3047Z" fill="#4B2C5E"/>
</svg>
