<svg width="420" height="461" viewBox="0 0 420 461" fill="none" xmlns="http://www.w3.org/2000/svg">
<path d="M198.362 137.901C201.481 138.156 203.495 136.817 204.405 133.885C217.466 90.3825 236.474 51.6605 272.538 23.0254C299.376 1.6725 328.439 -4.82898 359.728 3.52095C405.004 15.5678 423.914 57.3972 419.333 100.23C416.831 123.974 410.381 154.473 399.984 191.729C387.28 237.367 368.289 295.625 343.011 366.504C337.065 383.14 329.609 399.521 320.641 415.647C240.714 559.445 58.4392 318.938 18.2804 258.752C-10.5228 215.584 -4.43073 159.795 30.5133 121.838C57.5133 92.4859 101.474 97.7445 134.273 113.52C152.598 122.364 178.575 136.228 198.362 137.901Z" fill="#4B2C5E" fill-opacity="0.13"/>
</svg>
